<svg width="30" height="30" viewBox="0 0 30 30" fill="none" xmlns="http://www.w3.org/2000/svg">
<rect width="30" height="30" rx="15" fill="#F4F7F9"/>
<path d="M8.67533 15.5556L14.69 18.9156C14.789 18.9713 14.9007 19.0005 15.0142 19.0007C15.1278 19.0008 15.2395 18.9717 15.3387 18.9163L21.324 15.583C21.428 15.5251 21.5146 15.4405 21.5748 15.338C21.6351 15.2354 21.6668 15.1185 21.6666 14.9996C21.6665 14.8806 21.6345 14.7638 21.574 14.6614C21.5136 14.5589 21.4268 14.4745 21.3227 14.417L15.308 11.0836C15.2093 11.0289 15.0983 11.0001 14.9854 11C14.8725 10.9999 14.7615 11.0284 14.6627 11.083L8.67733 14.3896C8.57319 14.4471 8.48634 14.5315 8.42579 14.6339C8.36525 14.7363 8.33321 14.8531 8.33301 14.972C8.3328 15.091 8.36444 15.2079 8.42463 15.3105C8.48483 15.4131 8.57139 15.4977 8.67533 15.5556Z" fill="#32353B"/>
<path d="M9.32336 17.0837L8.67603 18.249L14.676 21.5823C14.775 21.6373 14.8864 21.6662 14.9997 21.6662C15.113 21.6662 15.2243 21.6373 15.3234 21.5823L21.3234 18.249L20.676 17.0837L15 20.237L9.32336 17.0837ZM20.3334 12.333V10.9997H21.6667V9.66634H20.3334V8.33301H19V9.66634H17.6667V10.9997H19V12.333H20.3334Z" fill="#32353B"/>
</svg>
