
<svg width="48" height="48" viewBox="0 0 48 48" fill="none" xmlns="http://www.w3.org/2000/svg">
<path d="M24.0119 4.01399C21.3853 4.00419 18.7829 4.51567 16.3553 5.51882C13.9278 6.52197 11.7234 7.99684 9.86995 9.85799C2.07395 17.656 2.07395 30.344 9.86995 38.142C13.6399 41.912 18.6619 43.988 24.0119 43.988C29.3619 43.988 34.386 41.912 38.1539 38.142C45.95 30.346 45.95 17.658 38.1539 9.85799C36.3004 7.99693 34.096 6.52212 31.6685 5.51898C29.241 4.51583 26.6386 4.0043 24.0119 4.01399ZM35.3259 35.312C32.3119 38.326 28.2919 39.986 24.0119 39.986C19.7319 39.986 15.7119 38.326 12.6979 35.312C6.46195 29.074 6.46195 18.924 12.6979 12.686C15.7119 9.67199 19.7299 8.01399 24.0119 8.01399C28.2939 8.01399 32.3119 9.67199 35.3259 12.686C41.562 18.924 41.562 29.074 35.3259 35.312Z" fill="#E2E8F0"/>
<path d="M22.9341 22.25L16.5061 28.678L19.3341 31.506L25.7621 25.078L30.0121 29.326V18H18.6861L22.9341 22.25Z" fill="#E2E8F0"/>
</svg>
