<svg width="133" height="133" viewBox="0 0 133 133" fill="none" xmlns="http://www.w3.org/2000/svg">
<path d="M99.1679 19.6895C98.707 18.7687 97.999 17.9944 97.123 17.4531C96.2471 16.9119 95.2378 16.6252 94.2081 16.625H38.7914C36.6911 16.625 34.7737 17.8109 33.8316 19.6895L11.6649 64.0229C11.2797 64.7928 11.0791 65.6419 11.0791 66.5028C11.0791 67.3637 11.2797 68.2128 11.6649 68.9827L33.8316 113.316C34.7737 115.189 36.6911 116.375 38.7914 116.375H94.2081C96.3084 116.375 98.2258 115.189 99.1679 113.31L121.335 68.9771C121.72 68.2072 121.92 67.3581 121.92 66.4972C121.92 65.6363 121.72 64.7872 121.335 64.0173L99.1679 19.6895ZM107.408 60.9583H64.3828L47.7578 27.7083H90.7833L107.408 60.9583ZM22.8203 66.5L38.7914 34.5578L54.7625 66.5L38.7914 98.4422L22.8203 66.5ZM90.7833 105.292H47.7578L64.3828 72.0417H107.408L90.7833 105.292Z" fill="url(#paint0_linear_3375_9425)"/>
<defs>
<linearGradient id="paint0_linear_3375_9425" x1="18.9963" y1="15.7855" x2="112.759" y2="120.103" gradientUnits="userSpaceOnUse">
<stop stopColor="#01AEE8"/>
<stop offset="1" stopColor="#7270F7"/>
</linearGradient>
</defs>
</svg>
