
<svg width="48" height="48" viewBox="0 0 48 48" fill="none" xmlns="http://www.w3.org/2000/svg">
<path d="M42.812 12.172L24.812 4.17202C24.5561 4.05828 24.2791 3.99951 23.999 3.99951C23.7189 3.99951 23.4419 4.05828 23.186 4.17202L5.186 12.172C5.146 12.19 5.118 12.22 5.078 12.242C5.022 12.27 4.962 12.288 4.91 12.322C4.866 12.352 4.832 12.39 4.79 12.422C4.64381 12.5307 4.51558 12.6616 4.41 12.81C4.37 12.866 4.328 12.916 4.292 12.972C4.23247 13.0777 4.18164 13.1881 4.14 13.302C4.122 13.356 4.094 13.406 4.078 13.46C4.02777 13.6357 4.00153 13.8173 4 14V34C4 34.792 4.464 35.506 5.188 35.828L23.188 43.828C23.448 43.944 23.724 44 24 44C24.2785 43.9929 24.5524 43.9275 24.804 43.808L24.812 43.828L42.812 35.828C43.1658 35.6711 43.4664 35.4148 43.6773 35.0903C43.8882 34.7658 44.0003 34.387 44 34V14C44.0003 13.613 43.8882 13.2342 43.6773 12.9097C43.4664 12.5852 43.1658 12.3289 42.812 12.172ZM24 8.19002L37.076 14L24 19.81L21.384 18.648L10.926 14L24 8.19002ZM26 38.922V23.3L40 17.078V32.702L26 38.922Z" fill="#E2E8F0"/>
</svg>
