<svg width="14" height="14" viewBox="0 0 12 12" fill="none" xmlns="http://www.w3.org/2000/svg">
<g id="bx-cube">
<path id="Vector" d="M10.703 3.04313L6.203 1.04313C6.13901 1.01469 6.06977 1 5.99975 1C5.92973 1 5.86049 1.01469 5.7965 1.04313L1.2965 3.04313C1.2865 3.04763 1.2795 3.05513 1.2695 3.06063C1.2555 3.06763 1.2405 3.07213 1.2275 3.08063C1.2165 3.08813 1.208 3.09763 1.1975 3.10563C1.16095 3.13279 1.12889 3.16552 1.1025 3.20263C1.0925 3.21663 1.082 3.22913 1.073 3.24313C1.05812 3.26955 1.04541 3.29714 1.035 3.32563C1.0305 3.33913 1.0235 3.35163 1.0195 3.36513C1.00694 3.40904 1.00038 3.45445 1 3.50013V8.50013C1 8.69813 1.116 8.87663 1.297 8.95713L5.797 10.9571C5.862 10.9861 5.931 11.0001 6 11.0001C6.06962 10.9983 6.13809 10.982 6.201 10.9521L6.203 10.9571L10.703 8.95713C10.7914 8.9179 10.8666 8.85383 10.9193 8.77271C10.972 8.69158 11.0001 8.59688 11 8.50013V3.50013C11.0001 3.40337 10.972 3.30868 10.9193 3.22755C10.8666 3.14642 10.7914 3.08235 10.703 3.04313ZM6 2.04763L9.269 3.50013L6 4.95263L5.346 4.66213L2.7315 3.50013L6 2.04763ZM2 8.17563V4.26963L5.5 5.82513V9.73063L2 8.17563ZM6.5 9.73063V5.82513L10 4.26963V8.17563L6.5 9.73063Z" fill="#8B99AD"/>
</g>
</svg>
