<svg width="16" height="16" viewBox="0 0 20 20" fill="none" xmlns="http://www.w3.org/2000/svg">
              <path
                d="M7.5 16.6667H12.5V18.3333H7.5V16.6667ZM14.0883 11.4267C14.9467 10.4217 15.8333 9.38249 15.8333 7.49999C15.8333 4.28416 13.2158 1.66666 10 1.66666C6.78416 1.66666 4.16666 4.28416 4.16666 7.49999C4.16666 9.40416 5.05583 10.44 5.9175 11.4417C6.21583 11.79 6.525 12.1508 6.82083 12.5658C6.94083 12.7375 7.1375 13.3958 7.31333 14.1667H6.65333V15.8333H13.3467V14.1667H12.6883C12.8658 13.3942 13.0633 12.7342 13.1825 12.5625C13.4758 12.1433 13.7875 11.7792 14.0883 11.4267Z"
                fill="#01AEE8"
              ></path>
              <defs>
                <linearGradient
                  id="paint0_linear_1545_755"
                  x1="5"
                  y1="1.52639"
                  x2="19.8101"
                  y2="11.9064"
                  gradientUnits="userSpaceOnUse"
                >
                  <stop stopColor="#01AEE8"></stop>
                  <stop offset="1" stopColor="#7270F7"></stop>
                </linearGradient>
              </defs>
            </svg>