<svg width="24" height="24" viewBox="0 0 24 24" fill="none" xmlns="http://www.w3.org/2000/svg">
<rect width="24" height="24" fill="white"/>
<path d="M2.6 13.0831L6.052 14.5941L16 9.16715L10 16.1671L18.6 20.0831C18.7471 20.1476 18.9075 20.1756 19.0677 20.1649C19.2279 20.1543 19.3832 20.1051 19.5204 20.0218C19.6576 19.9384 19.7728 19.8232 19.8561 19.6859C19.9394 19.5487 19.9884 19.3934 19.999 19.2331L20.999 4.23315C21.0101 4.05953 20.9759 3.88601 20.8996 3.72965C20.8233 3.57329 20.7076 3.43949 20.5639 3.34141C20.4203 3.24333 20.2535 3.18435 20.0801 3.17028C19.9067 3.1562 19.7326 3.18752 19.575 3.26115L2.575 11.2611C2.40159 11.3434 2.25545 11.4738 2.15398 11.6367C2.05251 11.7996 1.99996 11.9883 2.0026 12.1802C2.00523 12.3721 2.06293 12.5592 2.16884 12.7193C2.27474 12.8794 2.42439 13.0057 2.6 13.0831ZM8 22.1671L12.776 19.8511L8 17.6231V22.1671Z" fill="#16A34A"/>
</svg>
