<svg width="24" height="24" viewBox="0 0 24 24" fill="none" xmlns="http://www.w3.org/2000/svg">
<rect width="24" height="24" fill="white"/>
<path d="M11.488 21.7541C11.782 21.9111 12.151 21.9101 12.445 21.7531C20.457 17.4491 21.026 9.04011 21.019 6.64911C21.0183 6.45694 20.9615 6.26916 20.8556 6.10877C20.7498 5.94839 20.5994 5.82235 20.423 5.74611L12.373 2.18011C12.2449 2.12364 12.1064 2.09456 11.9664 2.09473C11.8264 2.0949 11.688 2.12432 11.56 2.18111L3.56603 5.74711C3.39222 5.82339 3.24402 5.94804 3.13906 6.10618C3.0341 6.26433 2.97681 6.44932 2.97403 6.63911C2.94003 9.01811 3.41903 17.4451 11.488 21.7541ZM8.67403 10.2931L10.967 12.5861L15.26 8.29311L16.674 9.70711L10.967 15.4141L7.26003 11.7071L8.67403 10.2931Z" fill="#16A34A"/>
</svg>
