<svg width="30" height="30" viewBox="0 0 30 30" fill="none" xmlns="http://www.w3.org/2000/svg">
<rect width="30" height="30" rx="15" fill="#F4F7F9"/>
<path d="M19 21.6663C19.3536 21.6663 19.6927 21.5259 19.9428 21.2758C20.1928 21.0258 20.3333 20.6866 20.3333 20.333V16.9997L17 19.6663V17.6663H12.3333V16.333H17V14.333L20.3333 16.9997V12.333L16.3333 8.33301H11C10.6463 8.33301 10.3072 8.47348 10.0572 8.72353C9.8071 8.97358 9.66663 9.31272 9.66663 9.66634V20.333C9.66663 20.6866 9.8071 21.0258 10.0572 21.2758C10.3072 21.5259 10.6463 21.6663 11 21.6663H19ZM15.6666 9.66634L19 12.9997H15.6666V9.66634Z" fill="#32353B"/>
</svg>
