
<svg width="12" height="12" viewBox="0 0 12 12" fill="none" xmlns="http://www.w3.org/2000/svg">
<g id="bxs-gas-pump">
<path id="Vector" d="M10.308 3.24L10.315 3.2315L8.315 1.6115L7.685 2.3885L8.7185 3.2255C8.46212 3.3813 8.25854 3.61062 8.13424 3.88367C8.00993 4.15671 7.97065 4.46083 8.0215 4.7565C8.0965 5.206 8.406 5.5945 8.8065 5.812C9.254 6.0555 9.6465 6.033 9.9955 5.909L9.988 9C9.9886 9.08279 9.96855 9.16443 9.92967 9.23752C9.89078 9.31062 9.83428 9.37286 9.76529 9.41863C9.69629 9.4644 9.61697 9.49224 9.53451 9.49964C9.45205 9.50703 9.36904 9.49375 9.293 9.461C9.23344 9.43553 9.17943 9.39867 9.134 9.3525C9.08778 9.30618 9.05114 9.25121 9.02617 9.19073C9.00121 9.13025 8.9884 9.06543 8.9885 9L9 8C9.0005 7.80319 8.96201 7.60823 8.88675 7.42638C8.81149 7.24453 8.70094 7.07939 8.5615 6.9405C8.42221 6.8009 8.25676 6.69014 8.07461 6.61456C7.89247 6.53897 7.69721 6.50004 7.5 6.5H7V2.5C7 2.23478 6.89464 1.98043 6.70711 1.79289C6.51957 1.60536 6.26522 1.5 6 1.5H2.5C2.23478 1.5 1.98043 1.60536 1.79289 1.79289C1.60536 1.98043 1.5 2.23478 1.5 2.5V9.5C1.5 9.76522 1.60536 10.0196 1.79289 10.2071C1.98043 10.3946 2.23478 10.5 2.5 10.5H6C6.26522 10.5 6.51957 10.3946 6.70711 10.2071C6.89464 10.0196 7 9.76522 7 9.5V7.5H7.5C7.568 7.5 7.6335 7.5135 7.6955 7.539C7.8145 7.59109 7.90935 7.68631 7.961 7.8055C7.98694 7.86705 8.0002 7.9332 8 8L7.988 9C7.988 9.203 8.0275 9.3995 8.106 9.584C8.1815 9.7635 8.29 9.924 8.4265 10.0595C8.56529 10.1998 8.73065 10.311 8.91291 10.3866C9.09517 10.4622 9.29067 10.5008 9.488 10.5C9.691 10.5 9.887 10.461 10.072 10.382C10.251 10.307 10.412 10.1985 10.5475 10.0615C10.6875 9.92249 10.7985 9.75709 10.8741 9.57488C10.9497 9.39267 10.9884 9.19727 10.988 9L11 4.5C10.9995 4.24881 10.9359 4.00177 10.815 3.7816C10.694 3.56143 10.5197 3.37519 10.308 3.24ZM6 4H2.5V2.5H6V4ZM9.5 5C9.36739 5 9.24021 4.94732 9.14645 4.85355C9.05268 4.75979 9 4.63261 9 4.5C9 4.36739 9.05268 4.24021 9.14645 4.14645C9.24021 4.05268 9.36739 4 9.5 4C9.63261 4 9.75979 4.05268 9.85355 4.14645C9.94732 4.24021 10 4.36739 10 4.5C10 4.63261 9.94732 4.75979 9.85355 4.85355C9.75979 4.94732 9.63261 5 9.5 5Z" fill="#64748B"/>
</g>
</svg>
