<svg width="16" height="16" viewBox="0 0 16 16" fill="none" xmlns="http://www.w3.org/2000/svg">
<g id="bxs-help-circle">
<path id="Vector" d="M8.00016 1.33334C4.32416 1.33334 1.3335 4.32401 1.3335 8.00001C1.3335 11.676 4.32416 14.6667 8.00016 14.6667C11.6762 14.6667 14.6668 11.676 14.6668 8.00001C14.6668 4.32401 11.6762 1.33334 8.00016 1.33334ZM8.66683 12H7.3335V10.6667H8.66683V12ZM9.3175 8.74334C9.18683 8.84868 9.06083 8.94934 8.96083 9.04934C8.68883 9.32068 8.6675 9.56734 8.66683 9.57801V9.66668H7.3335V9.55534C7.3335 9.47668 7.35283 8.77068 8.0175 8.10601C8.1475 7.97601 8.30883 7.84401 8.47816 7.70668C8.9675 7.31001 9.28883 7.02068 9.28883 6.62201C9.28108 6.28522 9.14183 5.96484 8.90087 5.72942C8.65991 5.494 8.33638 5.36224 7.9995 5.36232C7.66263 5.36241 7.33917 5.49434 7.09833 5.72989C6.85749 5.96544 6.7184 6.28589 6.71083 6.62268H5.3775C5.3775 5.17668 6.55416 4.00001 8.00016 4.00001C9.44616 4.00001 10.6228 5.17668 10.6228 6.62268C10.6228 7.68734 9.83683 8.32268 9.3175 8.74334Z" fill="#4D535C"/>
</g>
</svg>
