<svg width="80" height="24" viewBox="0 0 80 24" fill="none" xmlns="http://www.w3.org/2000/svg">
<g clip-path="url(#clip0_3271_19020)">
<path fill-rule="evenodd" clip-rule="evenodd" d="M5.56197 20.6054C2.95165 18.6489 1.25803 15.5218 1.25803 12C1.25803 6.07174 6.05282 1.26196 11.9626 1.26196C16.8419 1.26196 22.1699 4.18696 23.4571 8.66738C22.017 3.66196 17.4173 0 11.9626 0C5.35717 0 0 5.37392 0 12C0 18.6261 5.35717 24 11.9626 24C18.5681 24 23.9252 18.6261 23.9252 12V11.3674H23.2686C23.2491 11.3674 23.2198 11.3674 23.1808 11.3674C23.1028 11.3674 22.9923 11.3642 22.8493 11.3576C22.5664 11.3478 22.1764 11.3282 21.7375 11.2892C20.8403 11.2109 19.8163 11.0576 19.1207 10.7772C17.9992 10.3272 17.3653 9.73373 16.6437 9.03585L16.6013 8.99677C15.8765 8.2989 15.0638 7.51305 13.6497 6.84782C12.2585 6.19239 10.7208 6.29674 9.59282 6.53153C9.02071 6.64892 8.52658 6.80543 8.17877 6.93261C8.00322 6.99457 7.86348 7.05326 7.76598 7.09239C7.19708 7.3337 6.64446 7.61738 6.08858 7.88153C6.08858 7.88153 7.18408 8.18152 7.72366 8.3511C7.74318 8.35762 7.77249 8.36737 7.81473 8.38042C7.896 8.40652 8.01301 8.4489 8.15275 8.50763C8.43888 8.625 8.81271 8.7978 9.18325 9.03915C9.76837 9.41415 10.2527 9.89025 10.4511 10.4707C9.21249 10.6337 8.04875 11.1815 7.17757 11.6935C6.65095 12.0032 6.21211 12.3163 5.90329 12.5478C5.7505 12.6653 5.62698 12.763 5.54246 12.8315C5.47095 12.8902 4.3527 13.8782 4.3527 13.8782C4.3527 13.8782 5.79602 14.0315 6.50793 14.175C6.98253 14.2696 7.61966 14.4261 8.28935 14.6576C8.95895 14.8924 9.63514 15.1989 10.1975 15.5935C10.7599 15.988 11.1727 16.4413 11.3742 16.963C11.9658 18.4826 11.384 19.9598 10.217 20.7913C9.06295 21.6131 7.31085 21.8087 5.55871 20.6022L5.56197 20.6054ZM9.64486 22.4837C10.1162 22.3304 10.5551 22.1054 10.9516 21.825C12.538 20.6935 13.3735 18.6196 12.551 16.5065C12.2259 15.675 11.6083 15.0424 10.9224 14.5598C10.2333 14.0772 9.44329 13.725 8.70864 13.4674C8.22751 13.2978 7.75948 13.1674 7.35311 13.0696C7.49936 12.975 7.65219 12.8772 7.81794 12.7793C8.78669 12.2087 10.009 11.6837 11.1792 11.6837C12.9443 11.6837 14.2576 12.2282 15.5124 12.8087C15.6262 12.8609 15.74 12.9163 15.857 12.9685C16.9785 13.4968 18.1552 14.0511 19.5237 14.0511C20.8923 14.0511 21.8838 13.6761 22.5957 13.2847C21.9618 18.6065 17.4466 22.7347 11.9691 22.7347C11.1727 22.7347 10.3957 22.6468 9.65136 22.4837H9.64486ZM21.2304 12.512C20.759 12.6718 20.1869 12.7892 19.5205 12.7892C18.4478 12.7892 17.5246 12.3587 16.3543 11.8108C16.2503 11.7619 16.1463 11.7131 16.039 11.6642C14.8655 11.1196 13.51 10.5424 11.7448 10.4381C11.5075 9.26738 10.6233 8.46525 9.86265 7.9761C9.77817 7.92067 9.69361 7.86847 9.60912 7.81957C9.68389 7.80322 9.76187 7.78372 9.84314 7.76737C10.8639 7.55542 12.0796 7.50322 13.1101 7.99237C14.3324 8.56957 15.0248 9.23475 15.7432 9.9261L15.7692 9.9489C16.5071 10.6597 17.2905 11.4065 18.6526 11.9543C19.41 12.2576 20.3917 12.4207 21.2304 12.512Z" fill="url(#paint0_linear_3271_19020)"/>
<path d="M31.6685 9.41438V2.32526H33.0208L34.191 5.17199L35.3612 2.32526H36.7135V9.41438H35.6538V3.96548L34.1812 7.47743L32.7087 3.96548V9.41438H31.6685Z" fill="white"/>
<path d="M38.3193 9.41438L40.5396 2.32526H41.9732L44.1934 9.41438H42.9614L42.4478 7.70243H40.0162L39.5124 9.41438H38.3226H38.3193ZM40.2861 6.76004H42.1845L41.2352 3.61004L40.2861 6.76004Z" fill="white"/>
<path d="M45.9292 9.41438V2.32526H47.1515L49.7065 7.28504L49.687 2.32526H50.7175V9.41438H49.596L46.9402 4.29156L46.9597 9.41438H45.9292Z" fill="white"/>
<path d="M54.7808 9.41438V3.35895H52.5898V2.32526H58.181V3.35895H55.9901V9.41438H54.7776H54.7808Z" fill="white"/>
<path d="M59.5171 9.41438L61.7373 2.32526H63.1709L65.3911 9.41438H64.1591L63.6455 7.70243H61.214L60.7101 9.41438H59.5204H59.5171ZM61.4837 6.76004H63.3822L62.433 3.61004L61.4837 6.76004Z" fill="white"/>
<path d="M31.7983 21.5644V14.4752H33.0206L35.5757 19.435L35.5562 14.4752H36.5866V21.5644H35.4651L32.8093 16.4415L32.8288 21.5644H31.7983Z" fill="white"/>
<path d="M39.1062 21.5644V14.4752H43.7287V15.5089H40.3155V17.485H42.526V18.4959H40.3155V20.5306H43.7678V21.5644H39.103H39.1062Z" fill="white"/>
<path d="M47.7173 21.5644V15.5089H45.5264V14.4752H51.1175V15.5089H48.9266V21.5644H47.714H47.7173Z" fill="white"/>
<path d="M53.3602 21.5644L52.5312 14.4752H53.6008L54.0461 19.1545L54.9531 14.4752H55.86L56.7669 19.1122L57.2123 14.4752H58.2428L57.4236 21.5644H56.3346L55.3952 16.5622L54.4459 21.5644H53.357H53.3602Z" fill="white"/>
<path d="M62.4526 21.6752C61.9553 21.6752 61.4969 21.5318 61.0808 21.2513C60.6647 20.9676 60.3298 20.5535 60.0828 20.0122C59.8325 19.4676 59.709 18.8057 59.709 18.023C59.709 17.2404 59.8325 16.5752 60.0828 16.0339C60.3331 15.4893 60.6647 15.0785 61.0808 14.7947C61.4969 14.5111 61.9553 14.3708 62.4526 14.3708C62.95 14.3708 63.4051 14.5143 63.8211 14.7947C64.234 15.0785 64.5688 15.4926 64.8191 16.0339C65.0726 16.5785 65.1962 17.2404 65.1962 18.023C65.1962 18.8057 65.0694 19.4708 64.8191 20.0122C64.5656 20.5568 64.234 20.9676 63.8211 21.2513C63.4083 21.535 62.95 21.6752 62.4526 21.6752ZM62.4526 20.5828C62.7354 20.5828 62.9922 20.4883 63.2263 20.2926C63.4571 20.1002 63.6424 19.8133 63.7756 19.4318C63.9089 19.0502 63.9772 18.5807 63.9772 18.0198C63.9772 17.4589 63.9089 16.9893 63.7756 16.6111C63.6424 16.2328 63.4571 15.9458 63.2263 15.7502C62.9955 15.5546 62.7354 15.4568 62.4526 15.4568C62.1698 15.4568 61.9129 15.5546 61.6789 15.7502C61.4481 15.9458 61.2629 16.2328 61.1295 16.6111C60.9963 16.9893 60.928 17.4589 60.928 18.0198C60.928 18.5807 60.9963 19.0502 61.1295 19.4318C61.2629 19.8133 61.4481 20.1002 61.6789 20.2926C61.9097 20.485 62.1698 20.5828 62.4526 20.5828Z" fill="white"/>
<path d="M67.3187 21.5644V14.4752H69.721C70.1924 14.4752 70.6051 14.5633 70.9563 14.7426C71.3106 14.9219 71.5836 15.1698 71.7852 15.4926C71.9835 15.8122 72.0843 16.1872 72.0843 16.6111C72.0843 17.0774 71.964 17.4784 71.7201 17.8144C71.4763 18.1534 71.148 18.398 70.732 18.5545L72.276 21.5611H70.9725L69.5682 18.7274H68.528V21.5611H67.3154L67.3187 21.5644ZM68.5312 17.7589H69.6202C69.9973 17.7589 70.2964 17.6545 70.5239 17.4491C70.7482 17.2437 70.862 16.973 70.862 16.6339C70.862 16.2948 70.7482 16.0144 70.5239 15.8089C70.2996 15.6034 69.9973 15.4991 69.6202 15.4991H68.5312V17.7556V17.7589Z" fill="white"/>
<path d="M74.2723 21.5644V14.4752H75.485V17.6448L78.0173 14.4752H79.399L76.5511 17.9089L79.5291 21.5644H78.0038L75.4812 18.323V21.5644H74.269H74.2723Z" fill="white"/>
</g>
<defs>
<linearGradient id="paint0_linear_3271_19020" x1="-0.214547" y1="12.2218" x2="24.1399" y2="11.7778" gradientUnits="userSpaceOnUse">
<stop stopColor="#29CCB9"/>
<stop offset="0.49" stopColor="#0091FF"/>
<stop offset="1" stopColor="#FF66B7"/>
</linearGradient>
<clipPath id="clip0_3271_19020">
<rect width="80" height="24" fill="white"/>
</clipPath>
</defs>
</svg>