<svg width="133" height="133" viewBox="0 0 133 133" fill="none" xmlns="http://www.w3.org/2000/svg">
<path d="M110.833 77.5833V44.3333L77.5832 11.0833H33.2498C30.3104 11.0833 27.4913 12.251 25.4127 14.3295C23.3342 16.408 22.1665 19.2271 22.1665 22.1666V110.833C22.1665 113.773 23.3342 116.592 25.4127 118.67C27.4913 120.749 30.3104 121.917 33.2498 121.917H99.7498C102.689 121.917 105.508 120.749 107.587 118.67C109.665 116.592 110.833 113.773 110.833 110.833V88.6666H72.0415V105.292L44.3332 83.1249L72.0415 60.9583V77.5833H110.833ZM72.0415 22.1666L99.7498 49.8749H72.0415V22.1666Z" fill="#BBF7D0"/>
</svg>
